<svg xmlns="http://www.w3.org/2000/svg" xmlns:xlink="http://www.w3.org/1999/xlink" width="500" zoomAndPan="magnify" viewBox="0 0 375 374.999991" height="500" preserveAspectRatio="xMidYMid meet" version="1.0"><defs><clipPath id="2bd262fc79"><path d="M 71.164062 47.507812 L 375 47.507812 L 375 375 L 71.164062 375 Z M 71.164062 47.507812 " clip-rule="nonzero"/></clipPath></defs><rect x="-37.5" width="450" fill="#ffffff" y="-37.499999" height="449.999989" fill-opacity="1"/><rect x="-37.5" width="450" fill="#000000" y="-37.499999" height="449.999989" fill-opacity="1"/><g clip-path="url(#2bd262fc79)"><path fill="#ffffff" d="M 325.292969 47.726562 C 317.351562 47.835938 306.058594 49.242188 290.53125 52.023438 C 282.066406 53.542969 279.976562 54.28125 277.742188 56.546875 C 275.183594 59.132812 275.054688 59.726562 274.773438 70.273438 C 274.484375 81.101562 274.523438 81.328125 276.898438 82.875 C 278.226562 83.742188 282.667969 87.394531 286.769531 90.992188 C 296.355469 99.402344 298.027344 99.496094 307.644531 92.183594 C 311.832031 89 312.046875 87.871094 308.484375 87.808594 C 306.691406 87.78125 300.699219 85.054688 302.234375 84.96875 C 302.574219 84.949219 306.246094 86.074219 310.394531 87.46875 C 323.226562 90.652344 328.222656 77.234375 338.394531 72.417969 C 359.296875 76.996094 351.472656 105.390625 368.121094 129.605469 C 377.605469 147.316406 385.679688 149.589844 407.183594 140.628906 C 408.472656 140.089844 408.832031 140.191406 408.359375 140.957031 C 407.292969 142.683594 392.632812 146.96875 387.804688 146.96875 C 381.746094 146.96875 377.683594 145.007812 373.625 140.125 L 370.144531 135.929688 C 351.824219 133.148438 339.734375 141.324219 334.417969 150.167969 C 333.480469 151.289062 313.40625 165.09375 311.550781 171.765625 C 310.523438 154.933594 330.152344 150.34375 328.898438 150.167969 C 311.890625 153.269531 269.699219 151.539062 258.949219 167.503906 C 248.324219 150.488281 260.074219 133.203125 261.992188 126.546875 C 264.402344 118.4375 262.929688 109.691406 258.601562 102.644531 C 258.039062 100.273438 256.222656 98.214844 254.445312 96.519531 C 251.5 93.707031 247.691406 91.847656 245.027344 88.777344 C 242.203125 85.523438 240.488281 80.941406 235.996094 79.421875 C 228.34375 76.835938 220.164062 79.246094 212.953125 82.003906 C 208.722656 83.621094 204.339844 84.753906 199.765625 85.058594 C 195.894531 85.3125 188.117188 81.042969 188.164062 84.902344 C 188.191406 87.25 196.285156 83.328125 194.039062 84.683594 C 191.925781 85.957031 189.742188 86.628906 187.046875 87.007812 C 182.410156 87.664062 177.78125 88.214844 173.074219 88.351562 C 172.050781 88.382812 170.347656 87.761719 172.460938 88.5 C 175.804688 89.671875 178.492188 91.664062 182.007812 92.953125 C 185.480469 94.230469 179.800781 94.890625 178.535156 94.984375 C 171.230469 95.519531 163.335938 97.34375 156.5625 94.503906 C 155.195312 93.929688 154.226562 94.023438 155.398438 95.574219 C 157.910156 98.902344 162.328125 99.773438 166.101562 100.976562 C 167.566406 101.445312 171.519531 102.121094 171.269531 102.144531 C 166.433594 102.578125 162.855469 107.425781 157.820312 106.710938 C 156.4375 106.515625 155.3125 106.609375 157.191406 107.421875 C 164.542969 110.597656 171.160156 115.898438 179.007812 117.738281 C 177.664062 120.984375 177.917969 123.8125 179.640625 128.316406 C 181.191406 132.378906 181.171875 132.65625 178.992188 137.308594 C 177.753906 139.953125 170.621094 144.3125 169.378906 145.125 C 166.34375 147.113281 174.0625 147.367188 177.542969 151.007812 C 180.117188 153.703125 178.910156 157.519531 177.964844 159.914062 C 183.59375 159.261719 181.558594 160.246094 186.382812 161.515625 C 181.824219 162.019531 179.101562 163.402344 179.972656 164.734375 C 182.847656 169.128906 186.808594 173.640625 193.1875 180.457031 C 204.277344 176.585938 208.039062 172.09375 210.644531 173.441406 C 217.519531 176.996094 218.242188 180.984375 213.484375 189.101562 C 210.652344 193.933594 209.058594 194.71875 197.90625 196.773438 C 181.253906 199.847656 167.101562 208.96875 162.003906 219.917969 C 156.152344 228.257812 162.476562 244.835938 162.476562 244.835938 C 162.476562 244.835938 153.765625 236.382812 156.90625 224.394531 C 140.558594 230.175781 130.289062 218.6875 114.378906 236.230469 C 110.9375 241.425781 110.351562 240.285156 113.605469 234.730469 C 115.976562 230.683594 116.164062 229.6875 115.570312 224.136719 C 115.207031 220.765625 113.632812 214.347656 112.074219 209.871094 C 108.691406 200.179688 106.722656 187.027344 107.691406 180.574219 C 108.25 176.851562 108.644531 176.136719 109.679688 176.992188 C 114.398438 180.910156 121.96875 179.890625 126.414062 174.738281 C 127.886719 173.03125 130.285156 171.03125 131.746094 170.289062 C 136.4375 167.910156 138.296875 162.308594 138.296875 150.554688 C 138.296875 140.621094 143.527344 134.679688 139.84375 135.527344 C 134.832031 136.679688 110.527344 120.867188 107.351562 123.753906 C 98.605469 126.765625 92.957031 152.203125 85.472656 159.183594 C 85.507812 176.835938 82.785156 195.710938 78.320312 209.96875 C 71.777344 230.492188 71.097656 233.835938 71.105469 245.347656 C 71.113281 257.183594 73.507812 268.105469 77.792969 275.789062 C 79.105469 278.140625 79.9375 280.8125 79.644531 281.734375 C 79.253906 282.964844 80.152344 283.914062 83.050781 285.347656 C 86.941406 287.273438 87.082031 287.277344 95.921875 285.503906 C 119.996094 278.023438 129.160156 306.304688 168.800781 281.410156 C 175.015625 287.832031 160.285156 313.851562 171.957031 320.449219 C 171.957031 320.449219 195.601562 318.257812 201.285156 315.699219 C 198.21875 322.328125 172 327.75 172 327.75 C 162.011719 335.226562 180.390625 363.714844 165.597656 387.023438 C 165.511719 387.15625 165.4375 387.273438 165.4375 387.296875 C 165.4375 388.769531 187.414062 375.882812 201.617188 377.386719 C 209.878906 378.261719 236.285156 384.390625 244.488281 392.253906 C 258.21875 405.425781 286.28125 393.800781 293.234375 390.46875 C 297.324219 373.917969 289.976562 342.402344 278.980469 329.910156 C 276.253906 326.886719 275.796875 325.761719 276.289062 323.289062 C 276.71875 321.15625 276.546875 320.421875 275.683594 320.695312 C 263.898438 332.9375 252.570312 338.726562 249.769531 360.652344 C 249.757812 331.125 268.546875 326.808594 274.414062 318.65625 C 283.714844 305.734375 300.15625 290.535156 313.101562 280.890625 C 315.941406 278.777344 278.039062 276.421875 277.878906 256.804688 C 281.78125 275.726562 324.90625 272.777344 326.867188 271.140625 C 334.109375 265.089844 341.367188 256.304688 347.597656 245.941406 C 352.246094 238.207031 357.988281 225.792969 357.257812 225.0625 C 353.679688 228.035156 345.242188 231.929688 343.328125 227.363281 C 346.921875 230.359375 355.113281 222.128906 359.519531 220.707031 C 390.191406 212.667969 405.835938 196.078125 425.710938 165.296875 C 430.667969 157.621094 442.15625 134.992188 443.058594 131.125 C 445.992188 118.550781 423.222656 91.445312 393.214844 71.785156 C 370.191406 56.707031 355.695312 51.070312 332.152344 48.046875 C 330.214844 47.796875 327.941406 47.691406 325.292969 47.726562 Z M 325.292969 47.726562 " fill-opacity="1" fill-rule="nonzero"/></g></svg>